<?xml version="1.0" standalone="no"?>
<!DOCTYPE svg PUBLIC "-//W3C//DTD SVG 20010904//EN"
 "http://www.w3.org/TR/2001/REC-SVG-20010904/DTD/svg10.dtd">
<svg version="1.0" xmlns="http://www.w3.org/2000/svg"
 viewBox="0 0 2600.000000 2600.000000"
 preserveAspectRatio="xMidYMid meet">
<metadata>
Created by potrace 1.15, written by Peter Selinger 2001-2017
</metadata>
<g transform="translate(0.000000,2600.000000) scale(0.100000,-0.100000)"
fill="#000000" stroke="none">
<path d="M12035 19763 c-272 -34 -524 -169 -689 -372 -121 -148 -201 -329
-231 -523 l-6 -38 -1170 0 c-1014 0 -1180 -2 -1244 -15 -474 -98 -739 -595
-557 -1043 55 -133 164 -265 289 -348 70 -47 206 -99 294 -113 44 -8 1369 -11
4192 -11 3728 0 4135 2 4205 16 299 61 529 286 598 582 20 86 20 248 0 334
-57 245 -232 451 -463 543 -139 56 -113 55 -1380 55 l-1168 0 -16 88 c-38 204
-131 382 -279 532 -133 135 -249 210 -415 265 -157 53 -200 55 -1100 53 -456
0 -843 -3 -860 -5z"/>
<path d="M8986 16624 c-224 -54 -414 -248 -461 -470 -8 -38 -15 -97 -15 -131
0 -65 852 -7667 870 -7765 35 -186 163 -354 335 -439 152 -75 -113 -69 3222
-67 l2998 3 85 31 c47 16 111 47 142 68 123 81 226 224 262 362 11 44 786
6867 871 7673 16 150 10 227 -26 334 -64 192 -239 350 -444 402 -88 22 -7747
21 -7839 -1z m1505 -1766 c60 -36 114 -94 139 -150 17 -39 64 -435 290 -2444
149 -1318 270 -2427 270 -2464 0 -163 -140 -300 -305 -300 -128 0 -257 92
-294 210 -14 45 -551 4805 -551 4885 0 111 69 216 175 267 55 27 68 29 146 26
70 -3 93 -9 130 -30z m2550 4 c63 -30 117 -86 148 -152 l26 -55 0 -2460 0
-2460 -28 -57 c-32 -65 -90 -121 -156 -151 -68 -32 -189 -31 -255 2 -60 29
-117 85 -148 143 l-23 43 -3 2469 -2 2469 23 51 c34 74 79 120 150 156 57 29
69 31 142 28 58 -2 93 -10 126 -26z m2570 -4 c89 -52 149 -137 163 -233 4 -25
-97 -958 -267 -2470 -260 -2308 -276 -2433 -300 -2480 -30 -59 -85 -114 -147
-146 -37 -20 -60 -24 -130 -24 -70 0 -93 4 -130 24 -98 50 -167 147 -177 245
-4 43 503 4607 537 4839 18 120 71 196 173 247 58 30 68 31 148 28 70 -3 94
-9 130 -30z"/>
</g>
</svg>
